<?xml version="1.0" encoding="utf-8"?>
<!-- Generator: Adobe Illustrator 25.2.0, SVG Export Plug-In . SVG Version: 6.00 Build 0)  -->
<svg version="1.1" id="Layer_1" xmlns="http://www.w3.org/2000/svg" xmlns:xlink="http://www.w3.org/1999/xlink" x="0px" y="0px"
	 viewBox="0 0 595.28 403.53" style="enable-background:new 0 0 595.28 403.53;" xml:space="preserve">
<style type="text/css">
	.st0{opacity:0.53;fill:#1B1464;enable-background:new    ;}
	.st1{fill:#333333;}
	.st2{fill:#FC153B;}
	.st3{fill:#FFFFFF;}
	.st4{fill:#E6E6E6;}
	.st5{fill:none;stroke:#CCCCCC;stroke-width:3;stroke-miterlimit:10;}
	.st6{fill:none;stroke:#0CB8F4;stroke-miterlimit:10;}
	.st7{fill:#0CB8F4;}
	.st8{fill:none;stroke:#FFFFFF;stroke-width:6.457;stroke-linecap:round;stroke-linejoin:round;}
</style>
<g id="Group_390" transform="translate(-9557.792 -5819.078)">
	<g id="Group_387">
		<path id="Path_619" class="st0" d="M10048.2,6118.31c-1.47-0.84-3.02-1.52-4.64-2.03l-46.79-17.19
			c4.62-4.52,5.15-10.07-0.52-15.97c-9.16-9.52-24.82-9.87-39.15-5.1c-2.84,0.92-5.58,2.1-8.2,3.53l-37-13.55
			c6.96-4.84,8.82-11.28,2.19-18.17c-9.16-9.52-24.82-9.87-39.15-5.1c-4.06,1.25-7.9,3.13-11.37,5.57l-11.72-4.29l-6.83,2.48
			l-12.25,4.45l-5.43,1.97l0,0l-53.41,19.38c-6.69,2.43-7.8,6.17-7.87,8.19c-0.12,0.47-0.07,0.96,0.12,1.41l20.98,28.84
			c3.14,7.67,11.46,14.7,22.18,18.77l108.77,63.57l4.79,1.82l8.42,3.19c9.46,3.65,19.6,5.18,29.72,4.51l60.46-4.81l11.36,1.39
			c0.05,0,8.54,1.12,10.74,1.31c2.34,0.33,4.72,0.12,6.96-0.63l3.54-1.29c0,0,20.91,1.85,25.3-9.18
			C10082.1,6184.61,10053.04,6121.15,10048.2,6118.31z M9994.86,6130.76L9994.86,6130.76l3.55,0.17l0,0L9994.86,6130.76z
			 M9920.24,6134.62l-2.07,0.11l-2.09-0.77C9917.41,6134.45,9918.83,6134.68,9920.24,6134.62z"/>
		<g id="Group_386">
			<path id="Path_620" class="st1" d="M10043.21,6044.94c0,0,16.01,14.34,9.27,31.81c-4.14,10.72-80.25,67.87-86.09,67.6
				c-12.3-0.57-26.54-18.28-6.64-36.34C9966.87,6101.55,10043.21,6044.94,10043.21,6044.94z"/>
			<path id="Path_621" class="st2" d="M9738.93,5981.3l26.04,89.36c0.65,2.23,2.36,3.99,4.56,4.71l187.06,61.06
				c3.69,1.2,7.65-0.81,8.85-4.49c0.44-1.34,0.46-2.79,0.07-4.14l-5.64-19.34c8.03-3.07,17.52,2.54,17.52,2.54
				s62.52-44.16,60.55-52.25c-1.96-8.09,5.52-12.9,5.52-12.9l-1.56-5.36c-0.73-2.5-2.21-4.71-4.23-6.35l-17.58-14.2l-37.29-54.32
				c-5.88-8.57-14.49-14.91-24.42-18l-124.76-38.76c-10.96-3.41-22.9-1.13-31.84,6.07l-59.68,48.03c-0.56,0.45-1.02,1.03-1.33,1.68
				C9739.04,5967.26,9736.48,5972.88,9738.93,5981.3z M9958.28,6103.76l-0.1,0.08c-0.24-0.36-0.51-0.7-0.81-1.01L9958.28,6103.76z
				 M9940.75,6086.04L9940.75,6086.04l4.14,4.18L9940.75,6086.04z M9889.43,6019.14l2.12,0.69l36.75,49.53l-35.42-47.74
				C9892.01,6020.46,9890.8,6019.59,9889.43,6019.14z"/>
			<path id="Path_622" class="st2" d="M10040.79,6036.65"/>
			<path id="Path_623" class="st3" d="M9900.77,6045.74c0,0-11.15-18.73-17.05-22.24c-4.11-2.45-16.23-5.69-22.35-6.77
				c-5.84-1.02,3.83,31.29,5.57,37.28c2.75,9.42,28.37,17.05,28.37,17.05s8.84,6.02,6.65-8.78
				C9899.25,6044.19,9900.77,6045.74,9900.77,6045.74z"/>
			<path id="Path_624" class="st1" d="M9877.34,6062.69c0,0-3.2-10.98-2.42-12.4c0.78-1.42,7.37-3.34,10.98-3.2
				c2.38,0.09,4.1,5.01,5,8.37h0.01c0,0,3.2,10.98,2.42,12.4s-7.37,3.34-10.98,3.2C9879.97,6070.97,9878.25,6066.05,9877.34,6062.69
				L9877.34,6062.69z"/>
			<path id="Path_625" class="st1" d="M9892.83,6064.94c3.27,1.02,9.11-2.66,9.11-2.66l-1.06-3.65c-3.11,2.88-9.11,2.66-9.11,2.66
				L9892.83,6064.94z"/>
			<path id="Path_626" class="st1" d="M9895.29,6071.06c8.09-7.22,3.38-25.7,4.03-26.88c0.65-1.18,21.94,31.18,20.38,32.62
				C9918.15,6078.24,9893.71,6072.48,9895.29,6071.06z"/>
			<path id="Path_627" class="st1" d="M9963.37,6143.86l-53.11-17.46l-142.77-47.16l-2.5-8.58l196.27,65.94L9963.37,6143.86z"/>
			<path id="Path_628" class="st1" d="M9961.65,6114.49l-203.14-66.06l4.88,16.76l203.46,67.16L9961.65,6114.49z"/>
			<path id="Path_629" class="st1" d="M9868.14,6122.68c5.63,17.46,16.7,29.52,31.42,24.78c14.72-4.74,17.57-21.29,11.95-38.75
				s-17.61-29.23-32.32-24.49C9864.46,6088.96,9862.52,6105.21,9868.14,6122.68z"/>
			<path id="Path_630" class="st4" d="M9874.02,6120.83c3.3,10.23,9.51,17.37,13.87,15.97c4.36-1.4,4.33-10.55,1.04-20.78
				s-8.6-17.67-12.97-16.26C9871.6,6101.17,9870.73,6110.61,9874.02,6120.83z"/>
			<path id="Path_631" class="st1" d="M9782.22,6099.27c5.63,17.46,16.7,29.52,31.42,24.78c14.72-4.74,17.57-21.29,11.95-38.75
				s-17.6-29.23-32.32-24.49S9776.6,6081.81,9782.22,6099.27z"/>
			<path id="Path_632" class="st4" d="M9788.11,6097.43c3.29,10.23,9.51,17.37,13.87,15.97s4.33-10.55,1.04-20.78
				s-8.6-17.67-12.97-16.26C9785.68,6077.76,9784.81,6087.2,9788.11,6097.43z"/>
			<path id="Path_633" class="st3" d="M10008.57,6020.39c1.19-0.85,1.49-2.49,0.68-3.71c-10.08-15.12-24.21-39.35-28.87-38.06
				c-4.21,1.17-55.87,37.52-70.17,47.62c-2.26,1.58-2.97,4.6-1.66,7.02c5.47,10,19.39,27.33,24.53,36.72
				c0.9,1.62,2.94,2.21,4.56,1.32c0.13-0.07,0.25-0.15,0.36-0.23L10008.57,6020.39z"/>
			<path id="Path_634" class="st3" d="M9943.16,6090.7c-0.48-1.13,0.04-2.43,1.16-2.92c0.42-0.18,0.88-0.23,1.32-0.14
				c7.02,1.31,14.19,1.64,21.3,0.98c16.68-1.29,9.56,13.38,2.53,14.38C9962.44,6103.99,9951.14,6109.3,9943.16,6090.7z"/>
			<g id="Group_385">
				<path id="Path_635" class="st3" d="M10035.86,6049.35c-3.24,5.45-18.77,5.18-12.05-8.21c2.26-4.43,4.05-9.09,5.32-13.9
					c0,0,6.86,5.39,8.55,6.9C10037.01,6038.64,10037.53,6046.53,10035.86,6049.35z"/>
			</g>
			<path id="Path_636" class="st5" d="M9948.7,5972.7c0,0-8.67-13.12-21.12-16.85c-12.44-3.72-108.49-34.81-108.49-34.81"/>
			<path id="Path_637" class="st5" d="M9927.89,5988.71c0,0-8.67-13.13-21.12-16.85c-12.44-3.72-108.49-34.81-108.49-34.81"/>
			<path id="Path_638" class="st5" d="M9907.31,6007.61c0,0-8.67-13.12-21.11-16.85c-12.44-3.72-108.49-34.81-108.49-34.81"/>
			<path id="Path_639" class="st1" d="M10027.62,6066.78l0.83-5.52c0.17-1.16-0.24-2.32-1.11-3.11l-9.96-9.02
				c-1.25-1.13-3.13-1.21-4.47-0.19l-38.76,29.65c-1.53,1.17-1.82,3.37-0.65,4.9c0.08,0.1,0.16,0.2,0.25,0.29l8.71,9.1
				c0.62,0.65,1.47,1.03,2.36,1.08l8.95,0.42c0.86,0.04,1.7-0.24,2.37-0.78l30.22-24.63
				C10027.05,6068.42,10027.49,6067.64,10027.62,6066.78z"/>
			<path id="Path_640" class="st3" d="M9853.76,6016.18l6.94,33.28c0.39,1.85-0.8,3.67-2.65,4.05c-0.51,0.11-1.04,0.09-1.55-0.04
				l-92.53-24.51c-1.18-0.3-2.1-1.2-2.44-2.36l-10.19-34.98c-0.53-1.82,0.51-3.72,2.33-4.25c0.61-0.18,1.25-0.18,1.86-0.02
				l95.78,26.22C9852.55,6013.92,9853.49,6014.92,9853.76,6016.18z"/>
			
				<ellipse id="Ellipse_109" transform="matrix(0.8371 -0.5471 0.5471 0.8371 -1691.7943 6461.7646)" class="st3" cx="10003.78" cy="6071.5" rx="5.28" ry="2.64"/>
			<path id="Path_641" class="st1" d="M9966.31,5958.61l-62.03-51.25c-0.07-0.06-0.16-0.1-0.25-0.11l-0.91-0.15l59.57,51.8
				c0.21,0.19,0.24,0.52,0.05,0.73c-0.01,0.01-0.02,0.02-0.03,0.03l-1.2,1.18l4.62-1.35c0.27-0.09,0.42-0.38,0.34-0.65
				C9966.44,5958.75,9966.39,5958.67,9966.31,5958.61z"/>
		</g>
	</g>
	<line id="Line_12" class="st6" x1="9709.36" y1="5956.63" x2="9558.98" y2="5888.01"/>
	<line id="Line_13" class="st6" x1="9760.46" y1="5942.03" x2="9656.07" y2="5894.58"/>
	<line id="Line_14" class="st6" x1="9726.88" y1="6022.33" x2="9622.49" y2="5974.88"/>
	<g id="Group_389">
		<circle id="Ellipse_110" class="st7" cx="10094.24" cy="5893.52" r="56.57"/>
		<g id="Group_388">
			<line id="Line_15" class="st8" x1="10092.98" y1="5861.78" x2="10092.98" y2="5897.3"/>
			<line id="Line_16" class="st8" x1="10125.98" y1="5897.29" x2="10092.98" y2="5897.29"/>
		</g>
	</g>
</g>
</svg>
