<svg  viewBox="0 0 154 92" fill="none" xmlns="http://www.w3.org/2000/svg">
<path opacity="0.2" d="M16.7807 57.5588C17.7563 57.0052 17.7632 56.105 16.7911 55.5514C15.819 54.9977 14.2414 54.9977 13.2658 55.5514C12.2867 56.105 12.2833 57.0018 13.2554 57.5588C14.2241 58.1125 15.8017 58.1125 16.7807 57.5588ZM10.1487 53.8632C10.2248 53.8224 10.3009 53.7783 10.3771 53.7375C11.5153 53.1465 12.8645 52.8068 14.3244 52.5826C15.729 52.3687 17.1509 52.1716 18.5382 51.9203C19.5172 51.7437 20.4652 51.5059 21.4096 51.2715C23.1186 50.8503 24.7343 50.3306 26.3153 49.7736C26.3914 49.743 26.4779 49.7192 26.5609 49.6954C26.8273 49.6173 27.0487 49.6377 27.2182 49.7702C27.3151 49.8415 27.2874 49.9366 27.2113 50.0147C27.0902 50.1438 26.9588 50.2729 26.8204 50.3986C25.4608 51.6316 24.3329 52.9325 23.4335 54.2912C23.0979 54.8041 22.8868 55.3476 22.617 55.8775C22.3195 56.4583 22.0496 57.0459 21.7244 57.6234C21.3958 58.2008 20.8457 58.7069 20.1261 59.1553C20.0915 59.1757 20.0673 59.2028 20.0396 59.23C19.877 59.3217 19.7144 59.4134 19.5518 59.5052C19.3304 59.6003 19.109 59.6988 18.8738 59.7871C17.2616 60.3917 15.5111 60.5615 13.6325 60.3407C12.5116 60.2049 11.4945 59.9433 10.6019 59.5357C9.68514 59.1179 9.03474 58.5846 8.63689 57.9596C8.0626 57.0493 8.00033 56.1322 8.60575 55.2151C8.95171 54.6988 9.46373 54.2504 10.1487 53.8632Z" fill="#1B1464"/>
<path d="M26.7157 38.7106L27.8193 38.0822C27.8124 38.0788 27.802 38.072 27.7951 38.0686L26.6915 38.697C26.6984 38.7004 26.7054 38.7038 26.7157 38.7106Z" fill="#9E8800"/>
<path d="M26.6903 38.6936L27.7939 38.0652C27.5483 37.9225 27.3131 37.7289 27.102 37.5013L25.9984 38.1297C26.2095 38.3573 26.4447 38.5509 26.6903 38.6936Z" fill="#A38D00"/>
<path d="M25.9989 38.1333L27.1025 37.5049C26.9607 37.3521 26.8292 37.1857 26.7081 37.009L25.6045 37.6374C25.7222 37.8141 25.8571 37.9805 25.9989 38.1333Z" fill="#9E8800"/>
<path d="M25.6054 37.6373L26.709 37.0089C26.626 36.8867 26.5498 36.7576 26.4807 36.6251L25.3771 37.2535C25.4462 37.386 25.5224 37.515 25.6054 37.6373Z" fill="#998400"/>
<path d="M25.3759 37.2569L26.4795 36.6285C26.4172 36.513 26.3619 36.3907 26.31 36.2719L25.2064 36.9002C25.2548 37.0191 25.3136 37.138 25.3759 37.2569Z" fill="#948000"/>
<path d="M25.2069 36.8968L26.3105 36.2684C26.2621 36.1461 26.2171 36.0272 26.1791 35.9049L25.0755 36.5333C25.1135 36.6556 25.1585 36.7779 25.2069 36.8968Z" fill="#8F7B00"/>
<path d="M25.08 36.5333L26.1836 35.9049C26.1421 35.7656 26.1109 35.6263 26.0902 35.4905L24.9866 36.1189C25.0039 36.2547 25.0385 36.394 25.08 36.5333Z" fill="#8A7700"/>
<path d="M24.9814 36.119L26.085 35.4906C26.0642 35.3513 26.0539 35.2155 26.0539 35.083C26.0539 34.5361 26.2511 34.1489 26.5693 33.9689L25.4657 34.5973C25.1475 34.7773 24.9503 35.1645 24.9503 35.7114C24.9503 35.8438 24.9606 35.9797 24.9814 36.119Z" fill="#857200"/>
<path d="M27.9745 38.8293L29.0781 38.2009C29.0643 38.2077 29.0504 38.2179 29.0331 38.2247L27.9295 38.8531C27.9434 38.8463 27.9572 38.8395 27.9745 38.8293Z" fill="#8A7700"/>
<path d="M27.9306 38.853L29.0342 38.2246C28.9615 38.2586 28.8854 38.2857 28.8058 38.2993L27.7022 38.9277C27.7818 38.9141 27.8579 38.8903 27.9306 38.853Z" fill="#8F7B00"/>
<path d="M27.7011 38.9315L28.8047 38.3031C28.7251 38.3167 28.6421 38.3235 28.5556 38.3201L27.452 38.9485C27.5385 38.9519 27.6215 38.9451 27.7011 38.9315Z" fill="#948000"/>
<path d="M27.4492 38.9448L28.5527 38.3165C28.4559 38.3131 28.359 38.2961 28.2552 38.2655L27.1516 38.8939C27.2554 38.9245 27.3557 38.9414 27.4492 38.9448Z" fill="#998400"/>
<path d="M27.1542 38.8975L28.2578 38.2691C28.116 38.2283 27.9707 38.1672 27.8185 38.0823L26.7149 38.7107C26.8636 38.7956 27.0124 38.8567 27.1542 38.8975Z" fill="#9E8800"/>
<path d="M26.8582 50.3546L27.9618 49.7262C28.0068 49.7024 28.0413 49.6514 28.0656 49.5767C28.0863 49.5156 28.1036 49.4578 28.1209 49.3899C28.4254 48.1127 28.7782 46.8797 29.266 45.769C29.5359 45.1542 29.8023 44.5326 30.1413 43.9959C30.6187 43.2316 31.1619 42.5387 31.6773 41.8186C32.2136 41.0713 32.5941 40.1848 32.646 38.9823C32.6633 38.5509 32.6391 38.1026 32.5665 37.6406L31.4629 38.269C31.5355 38.731 31.5632 39.1793 31.5424 39.6107C31.4905 40.8132 31.11 41.6997 30.5737 42.447C30.0583 43.1671 29.5151 43.8566 29.0377 44.6243C28.6987 45.161 28.4323 45.7826 28.1624 46.3974C27.6746 47.5081 27.3218 48.7411 27.0173 50.0183C27.0035 50.0828 26.9827 50.144 26.9654 50.2051C26.9377 50.2764 26.9032 50.3274 26.8582 50.3546Z" fill="#857200"/>
<path d="M31.4599 38.269L32.5635 37.6406C32.5081 37.2874 32.4251 36.9239 32.3144 36.5503L31.2108 37.1787C31.3215 37.5489 31.4045 37.9158 31.4599 38.269Z" fill="#8A7700"/>
<path d="M31.2109 37.1752L32.3145 36.5469C32.2868 36.4586 32.2591 36.3668 32.228 36.2785C32.1484 36.0306 32.0584 35.7894 31.9581 35.5516L30.8545 36.18C30.9514 36.4178 31.0413 36.659 31.1244 36.9069C31.159 36.9986 31.1866 37.0869 31.2109 37.1752Z" fill="#8F7B00"/>
<path d="M30.8573 36.1801L31.9609 35.5517C31.8295 35.2324 31.6842 34.9233 31.5216 34.621L30.418 35.2494C30.5806 35.5517 30.7259 35.8608 30.8573 36.1801Z" fill="#948000"/>
<path d="M30.4179 35.2494L31.5215 34.621C31.3381 34.2746 31.1375 33.9417 30.9161 33.619L29.8125 34.2474C30.0339 34.5701 30.2345 34.903 30.4179 35.2494Z" fill="#998400"/>
<path d="M29.8163 34.244L30.9199 33.6156C30.5843 33.1163 30.2073 32.6442 29.7956 32.189C29.7679 32.1584 29.7402 32.1279 29.7125 32.0973L28.6089 32.7257C28.6366 32.7563 28.6643 32.7868 28.692 32.8174C29.1037 33.2725 29.4807 33.7447 29.8163 34.244Z" fill="#9E8800"/>
<path d="M28.6044 32.7291L29.708 32.1007C29.1441 31.4961 28.5594 31.0138 27.9506 30.6605L26.847 31.2889C27.4558 31.6422 28.0405 32.1245 28.6044 32.7291Z" fill="#A38D00"/>
<path d="M26.8515 31.2887L27.9551 30.6603C27.9378 30.6501 27.9205 30.6399 27.9066 30.6332C27.744 30.5414 27.5814 30.4599 27.4154 30.3852C27.1836 30.2833 26.9553 30.2018 26.7339 30.1406L25.6303 30.769C25.8517 30.8302 26.08 30.9117 26.3118 31.0136C26.4778 31.0883 26.6404 31.1698 26.803 31.2616C26.8169 31.2683 26.8342 31.2785 26.8515 31.2887Z" fill="#9E8800"/>
<path d="M25.6298 30.7692L26.7334 30.1408C26.4393 30.0593 26.1557 30.0118 25.8823 29.9982L24.7788 30.6266C25.0521 30.6402 25.3357 30.6843 25.6298 30.7692Z" fill="#998400"/>
<path d="M24.7753 30.623L25.8789 29.9947C25.6367 29.9811 25.4015 29.9946 25.1732 30.032C25.1524 30.0354 25.1282 30.0388 25.1074 30.0422L24.0038 30.6706C24.0246 30.6672 24.0488 30.6638 24.0696 30.6604C24.3013 30.6264 24.5331 30.6129 24.7753 30.623Z" fill="#948000"/>
<path d="M24.0077 30.6739L25.1113 30.0455C24.8622 30.0931 24.6305 30.1678 24.4229 30.2697L23.3193 30.8981C23.5269 30.7962 23.7552 30.7215 24.0077 30.6739Z" fill="#8F7B00"/>
<path d="M23.3192 30.9016L24.4229 30.2732C24.3813 30.2936 24.3398 30.3173 24.2983 30.3411L23.1947 30.9695C23.2327 30.9423 23.2743 30.922 23.3192 30.9016Z" fill="#8A7700"/>
<path d="M21.921 32.9634C21.8829 33.1604 21.8587 33.3744 21.831 33.5782C21.831 33.7617 21.831 33.9451 21.831 34.1285C21.838 34.1727 21.8518 34.2202 21.8518 34.261C21.8864 35.1339 22.0559 36.051 22.3984 36.9987C22.7444 37.9532 23.1249 38.9077 23.4916 39.8621C23.8237 40.7249 24.1974 41.5945 24.4811 42.4606C25.2283 44.7432 25.8061 47.002 26.2108 49.2269C26.2524 49.4545 26.3043 49.682 26.3561 49.913C26.3907 50.0523 26.4565 50.1984 26.5706 50.2799C26.5983 50.2969 26.6225 50.3138 26.6433 50.3274C26.8059 50.4191 26.9097 50.375 26.9685 50.2051C26.9892 50.144 27.0065 50.0829 27.0204 50.0183C27.3248 48.7412 27.6777 47.5082 28.1655 46.3974C28.4353 45.7826 28.7017 45.161 29.0408 44.6243C29.5182 43.8601 30.0613 43.1672 30.5768 42.4471C31.1131 41.6998 31.4936 40.8132 31.5455 39.6108C31.5801 38.7684 31.4452 37.8683 31.1303 36.907C30.6218 35.3683 29.7846 34.0164 28.6948 32.8208C28.0894 32.1584 27.4597 31.6319 26.8059 31.2617C26.6433 31.17 26.4807 31.0884 26.3146 31.0137C25.5051 30.6571 24.7613 30.5484 24.0763 30.6639C22.9312 30.8541 22.2012 31.6047 21.921 32.9634ZM26.7159 38.7107C25.7403 38.157 24.9481 36.8153 24.9516 35.7114C24.955 34.6108 25.7507 34.1659 26.7263 34.7195C27.7054 35.2732 28.4942 36.6183 28.4907 37.7188C28.4872 38.8194 27.6915 39.2643 26.7159 38.7107Z" fill="#EECD00"/>
<path opacity="0.5" d="M137.732 27.3563C137.732 27.3563 114.307 58.275 95.1786 55.0297C76.0502 51.7845 93.8337 38.7025 58.0571 45.9988C29.6879 51.7845 22.197 48.984 7.6516 45.9988C5.10616 45.7533 0.594575 46.5261 2.9118 51.5819C5.80834 57.9016 21.3443 56.8483 26.0841 63.6947C30.8239 70.5411 24.2408 69.4878 31.0872 73.1743C36.5643 76.1235 49.1686 78.7918 54.7861 79.7573" stroke="#FFB72A" stroke-width="4" stroke-miterlimit="10" stroke-linecap="round" stroke-linejoin="round"/>
<path opacity="0.2" d="M68.4055 50.6495C69.323 50.1288 69.3295 49.2823 68.4153 48.7616C67.5011 48.241 66.0176 48.241 65.1001 48.7616C64.1794 49.2823 64.1762 50.1256 65.0904 50.6495C66.0013 51.1701 67.4848 51.1701 68.4055 50.6495ZM62.1689 47.1741C62.2404 47.1358 62.312 47.0942 62.3836 47.0559C63.4539 46.5001 64.7227 46.1807 66.0957 45.9699C67.4165 45.7686 68.7537 45.5833 70.0583 45.347C70.979 45.1809 71.8704 44.9573 72.7586 44.7369C74.3657 44.3408 75.885 43.8521 77.3718 43.3282C77.4434 43.2995 77.5247 43.2771 77.6028 43.2547C77.8533 43.1813 78.0615 43.2004 78.2209 43.325C78.312 43.3921 78.286 43.4815 78.2144 43.555C78.1006 43.6764 77.9769 43.7978 77.8468 43.9159C76.5682 45.0755 75.5076 46.2989 74.6618 47.5766C74.3462 48.0589 74.1477 48.57 73.894 49.0683C73.6142 49.6145 73.3604 50.1671 73.0546 50.7101C72.7455 51.2532 72.2283 51.7291 71.5516 52.1508C71.519 52.1699 71.4962 52.1955 71.4702 52.221C71.3173 52.3073 71.1644 52.3935 71.0115 52.4798C70.8033 52.5692 70.5951 52.6618 70.3738 52.7449C68.8578 53.3135 67.2116 53.4732 65.445 53.2656C64.3909 53.1378 63.4344 52.8918 62.595 52.5085C61.7329 52.1156 61.1213 51.6141 60.7471 51.0264C60.2071 50.1703 60.1485 49.3079 60.7179 48.4454C61.0432 47.9599 61.5247 47.5382 62.1689 47.1741Z" fill="#1B1464"/>
<path d="M77.7483 32.9245L78.7861 32.3336C78.7796 32.3304 78.7699 32.324 78.7634 32.3208L77.7256 32.9118C77.7321 32.9149 77.7386 32.9181 77.7483 32.9245Z" fill="#9E8800"/>
<path d="M77.7249 32.9086L78.7627 32.3177C78.5317 32.1836 78.3105 32.0015 78.112 31.7875L77.0742 32.3784C77.2726 32.5924 77.4939 32.7745 77.7249 32.9086Z" fill="#A38D00"/>
<path d="M77.0745 32.3816L78.1123 31.7907C77.9789 31.647 77.8553 31.4904 77.7414 31.3243L76.7036 31.9153C76.8142 32.0814 76.9411 32.2379 77.0745 32.3816Z" fill="#9E8800"/>
<path d="M76.7043 31.915L77.7422 31.3241C77.6641 31.2091 77.5925 31.0877 77.5275 30.9631L76.4896 31.5541C76.5547 31.6787 76.6263 31.8 76.7043 31.915Z" fill="#998400"/>
<path d="M76.4885 31.5574L77.5264 30.9665C77.4678 30.8579 77.4158 30.7429 77.367 30.6311L76.3291 31.222C76.3747 31.3338 76.43 31.4456 76.4885 31.5574Z" fill="#948000"/>
<path d="M76.3284 31.2187L77.3662 30.6278C77.3207 30.5128 77.2784 30.401 77.2426 30.286L76.2048 30.877C76.2405 30.9919 76.2828 31.1069 76.3284 31.2187Z" fill="#8F7B00"/>
<path d="M76.2093 30.877L77.2471 30.2861C77.208 30.1551 77.1788 30.0241 77.1592 29.8964L76.1214 30.4873C76.1377 30.6151 76.1702 30.746 76.2093 30.877Z" fill="#8A7700"/>
<path d="M76.1171 30.4873L77.1549 29.8964C77.1354 29.7654 77.1256 29.6376 77.1256 29.5131C77.1256 28.9988 77.311 28.6346 77.6104 28.4653L76.5725 29.0563C76.2732 29.2256 76.0878 29.5897 76.0878 30.104C76.0878 30.2286 76.0976 30.3564 76.1171 30.4873Z" fill="#857200"/>
<path d="M78.9319 33.0361L79.9697 32.4452C79.9567 32.4516 79.9437 32.4612 79.9274 32.4676L78.8896 33.0585C78.9026 33.0521 78.9156 33.0457 78.9319 33.0361Z" fill="#8A7700"/>
<path d="M78.8909 33.0585L79.9287 32.4675C79.8604 32.4995 79.7888 32.525 79.714 32.5378L78.6762 33.1287C78.751 33.116 78.8226 33.0936 78.8909 33.0585Z" fill="#8F7B00"/>
<path d="M78.6741 33.1322L79.7119 32.5413C79.6371 32.554 79.559 32.5604 79.4777 32.5572L78.4398 33.1482C78.5212 33.1514 78.5993 33.145 78.6741 33.1322Z" fill="#948000"/>
<path d="M78.4368 33.145L79.4746 32.554C79.3835 32.5508 79.2924 32.5349 79.1948 32.5061L78.157 33.097C78.2546 33.1258 78.3489 33.1418 78.4368 33.145Z" fill="#998400"/>
<path d="M78.1614 33.1001L79.1992 32.5092C79.0658 32.4708 78.9292 32.4134 78.7861 32.3335L77.7482 32.9244C77.8881 33.0043 78.028 33.0618 78.1614 33.1001Z" fill="#9E8800"/>
<path d="M77.8822 43.8744L78.92 43.2835C78.9623 43.2611 78.9948 43.2132 79.0176 43.1429C79.0371 43.0855 79.0534 43.0312 79.0696 42.9673C79.3559 41.7662 79.6878 40.6067 80.1465 39.5622C80.4003 38.984 80.6508 38.3995 80.9696 37.8948C81.4186 37.1761 81.9294 36.5244 82.4141 35.8473C82.9184 35.1445 83.2763 34.3108 83.3251 33.1801C83.3413 32.7744 83.3185 32.3528 83.2502 31.9183L82.2124 32.5093C82.2807 32.9437 82.3067 33.3653 82.2872 33.771C82.2384 34.9018 81.8806 35.7355 81.3763 36.4382C80.8915 37.1154 80.3808 37.7638 79.9318 38.4857C79.613 38.9904 79.3625 39.575 79.1087 40.1531C78.65 41.1976 78.3181 42.3572 78.0318 43.5582C78.0188 43.6189 77.9993 43.6764 77.983 43.7339C77.957 43.801 77.9245 43.8489 77.8822 43.8744Z" fill="#857200"/>
<path d="M82.2093 32.5093L83.2471 31.9184C83.195 31.5862 83.1169 31.2444 83.0128 30.8931L81.975 31.484C82.0791 31.8322 82.1572 32.1771 82.2093 32.5093Z" fill="#8A7700"/>
<path d="M81.9739 31.4806L83.0117 30.8897C82.9857 30.8066 82.9597 30.7204 82.9304 30.6373C82.8556 30.4041 82.771 30.1773 82.6766 29.9537L81.6388 30.5447C81.7299 30.7683 81.8145 30.9951 81.8926 31.2282C81.9251 31.3145 81.9511 31.3975 81.9739 31.4806Z" fill="#8F7B00"/>
<path d="M81.6429 30.5448L82.6807 29.9538C82.557 29.6536 82.4204 29.3629 82.2675 29.0786L81.2297 29.6696C81.3826 29.9538 81.5192 30.2445 81.6429 30.5448Z" fill="#948000"/>
<path d="M81.2307 29.6696L82.2686 29.0787C82.0961 28.7528 81.9074 28.4398 81.6992 28.1364L80.6614 28.7273C80.8696 29.0307 81.0583 29.3438 81.2307 29.6696Z" fill="#998400"/>
<path d="M80.6634 28.7241L81.7012 28.1332C81.3856 27.6636 81.031 27.2196 80.6438 26.7916C80.6178 26.7628 80.5918 26.7341 80.5658 26.7053L79.5279 27.2963C79.554 27.325 79.58 27.3538 79.606 27.3825C79.9932 27.8105 80.3478 28.2545 80.6634 28.7241Z" fill="#9E8800"/>
<path d="M79.5247 27.2995L80.5625 26.7086C80.0322 26.14 79.4824 25.6865 78.9098 25.3542L77.872 25.9452C78.4446 26.2774 78.9944 26.731 79.5247 27.2995Z" fill="#A38D00"/>
<path d="M77.8753 25.945L78.9131 25.3541C78.8968 25.3445 78.8806 25.3349 78.8675 25.3285C78.7146 25.2423 78.5617 25.1656 78.4056 25.0953C78.1876 24.9995 77.9729 24.9229 77.7646 24.8654L76.7268 25.4563C76.935 25.5138 77.1498 25.5905 77.3677 25.6863C77.5239 25.7566 77.6768 25.8332 77.8297 25.9195C77.8427 25.9259 77.859 25.9354 77.8753 25.945Z" fill="#9E8800"/>
<path d="M76.7278 25.4565L77.7656 24.8656C77.4891 24.7889 77.2223 24.7442 76.9653 24.7314L75.9275 25.3224C76.1845 25.3352 76.4513 25.3767 76.7278 25.4565Z" fill="#998400"/>
<path d="M75.9241 25.3189L76.9619 24.728C76.7342 24.7152 76.513 24.728 76.2982 24.7631C76.2787 24.7663 76.2559 24.7695 76.2364 24.7727L75.1986 25.3637C75.2181 25.3605 75.2409 25.3573 75.2604 25.3541C75.4784 25.3221 75.6964 25.3094 75.9241 25.3189Z" fill="#948000"/>
<path d="M75.2014 25.3671L76.2393 24.7761C76.005 24.8208 75.787 24.8911 75.5918 24.9869L74.554 25.5779C74.7492 25.4821 74.9639 25.4118 75.2014 25.3671Z" fill="#8F7B00"/>
<path d="M74.553 25.581L75.5908 24.9901C75.5518 25.0093 75.5127 25.0316 75.4737 25.054L74.4359 25.6449C74.4717 25.6194 74.5107 25.6002 74.553 25.581Z" fill="#8A7700"/>
<path d="M73.2391 27.52C73.2033 27.7053 73.1805 27.9065 73.1545 28.0982C73.1545 28.2707 73.1545 28.4432 73.1545 28.6156C73.161 28.6572 73.174 28.7019 73.174 28.7402C73.2065 29.5612 73.366 30.4236 73.688 31.3148C74.0134 32.2124 74.3712 33.11 74.7161 34.0076C75.0284 34.8189 75.3798 35.6366 75.6466 36.4512C76.3493 38.5977 76.8926 40.7219 77.2733 42.8141C77.3123 43.0282 77.3611 43.2422 77.4099 43.4594C77.4424 43.5903 77.5042 43.7277 77.6116 43.8044C77.6376 43.8203 77.6604 43.8363 77.6799 43.8491C77.8328 43.9353 77.9304 43.8938 77.9857 43.7341C78.0053 43.6766 78.0215 43.6191 78.0345 43.5584C78.3208 42.3574 78.6527 41.1979 79.1114 40.1533C79.3652 39.5752 79.6157 38.9906 79.9345 38.4859C80.3835 37.7672 80.8943 37.1156 81.379 36.4384C81.8833 35.7357 82.2412 34.902 82.29 33.7712C82.3225 32.979 82.1956 32.1325 81.8995 31.2286C81.4213 29.7816 80.634 28.5102 79.6092 27.3859C79.0398 26.763 78.4477 26.2679 77.8328 25.9197C77.6799 25.8335 77.527 25.7568 77.3709 25.6865C76.6096 25.3511 75.9101 25.2489 75.2659 25.3575C74.1891 25.5364 73.5026 26.2423 73.2391 27.52ZM77.7482 32.9247C76.8308 32.404 76.0858 31.1423 76.089 30.1042C76.0923 29.0692 76.8406 28.6508 77.758 29.1715C78.6787 29.6921 79.4205 30.957 79.4172 31.992C79.414 33.0269 78.6657 33.4454 77.7482 32.9247Z" fill="#EECD00"/>
<path opacity="0.2" d="M42.2782 87.9671C43.3981 87.3316 43.406 86.2984 42.2901 85.6629C41.1743 85.0274 39.3635 85.0274 38.2436 85.6629C37.1198 86.2984 37.1159 87.3277 38.2317 87.9671C39.3436 88.6026 41.1544 88.6026 42.2782 87.9671ZM34.6657 83.7251C34.7531 83.6783 34.8405 83.6277 34.9278 83.5809C36.2343 82.9025 37.783 82.5126 39.4588 82.2553C41.071 82.0096 42.7031 81.7835 44.2955 81.495C45.4193 81.2922 46.5074 81.0193 47.5915 80.7503C49.5532 80.2668 51.4076 79.6703 53.2224 79.0309C53.3098 78.9958 53.4091 78.9685 53.5044 78.9412C53.8101 78.8515 54.0643 78.8749 54.2589 79.027C54.37 79.1089 54.3383 79.218 54.2509 79.3077C54.1119 79.4559 53.961 79.604 53.8022 79.7483C52.2416 81.1636 50.947 82.6568 49.9145 84.2164C49.5293 84.8051 49.2871 85.429 48.9774 86.0372C48.6359 86.7039 48.3261 87.3784 47.9528 88.0412C47.5756 88.704 46.9442 89.2849 46.1182 89.7996C46.0785 89.823 46.0507 89.8542 46.0189 89.8854C45.8323 89.9906 45.6457 90.0959 45.459 90.2012C45.2049 90.3104 44.9507 90.4234 44.6807 90.5248C42.8302 91.2188 40.8208 91.4137 38.6646 91.1603C37.378 91.0044 36.2105 90.7041 35.1859 90.2363C34.1336 89.7567 33.3871 89.1446 32.9304 88.4272C32.2712 87.3823 32.1997 86.3296 32.8946 85.2769C33.2918 84.6843 33.8795 84.1696 34.6657 83.7251Z" fill="#1B1464"/>
<path d="M53.6815 66.3321L54.9482 65.6108C54.9403 65.6069 54.9284 65.5991 54.9204 65.5952L53.6537 66.3165C53.6616 66.3204 53.6696 66.3243 53.6815 66.3321Z" fill="#9E8800"/>
<path d="M53.6532 66.3127L54.9199 65.5914C54.638 65.4277 54.368 65.2054 54.1257 64.9442L52.859 65.6655C53.1012 65.9267 53.3712 66.149 53.6532 66.3127Z" fill="#A38D00"/>
<path d="M52.8592 65.6695L54.126 64.9481C53.9632 64.7727 53.8123 64.5817 53.6733 64.3789L52.4065 65.1002C52.5415 65.303 52.6964 65.494 52.8592 65.6695Z" fill="#9E8800"/>
<path d="M52.4061 65.1002L53.6729 64.3789C53.5775 64.2386 53.4902 64.0904 53.4108 63.9384L52.144 64.6597C52.2234 64.8117 52.3108 64.9599 52.4061 65.1002Z" fill="#998400"/>
<path d="M52.1444 64.6634L53.4111 63.9421C53.3397 63.8095 53.2761 63.6692 53.2166 63.5327L51.9498 64.254C52.0054 64.3905 52.0729 64.5269 52.1444 64.6634Z" fill="#948000"/>
<path d="M51.95 64.2501L53.2168 63.5288C53.1612 63.3884 53.1096 63.2519 53.0659 63.1116L51.7991 63.8329C51.8428 63.9733 51.8944 64.1136 51.95 64.2501Z" fill="#8F7B00"/>
<path d="M51.8026 63.833L53.0693 63.1117C53.0217 62.9518 52.9859 62.7919 52.9621 62.636L51.6954 63.3573C51.7152 63.5133 51.7549 63.6731 51.8026 63.833Z" fill="#8A7700"/>
<path d="M51.6929 63.3574L52.9597 62.6361C52.9358 62.4763 52.9239 62.3203 52.9239 62.1682C52.9239 61.5405 53.1503 61.096 53.5156 60.8894L52.2488 61.6107C51.8835 61.8173 51.6572 62.2618 51.6572 62.8895C51.6572 63.0416 51.6691 63.1976 51.6929 63.3574Z" fill="#857200"/>
<path d="M55.1268 66.4684L56.3936 65.7471C56.3777 65.7549 56.3618 65.7666 56.3419 65.7744L55.0752 66.4957C55.0911 66.4879 55.1069 66.4801 55.1268 66.4684Z" fill="#8A7700"/>
<path d="M55.0751 66.4957L56.3418 65.7744C56.2584 65.8134 56.171 65.8446 56.0797 65.8602L54.813 66.5815C54.9043 66.5659 54.9917 66.5386 55.0751 66.4957Z" fill="#8F7B00"/>
<path d="M54.8133 66.5857L56.0801 65.8644C55.9887 65.88 55.8934 65.8878 55.7942 65.8839L54.5274 66.6052C54.6267 66.6091 54.722 66.6013 54.8133 66.5857Z" fill="#948000"/>
<path d="M54.5223 66.6012L55.7891 65.8799C55.6779 65.876 55.5667 65.8565 55.4475 65.8214L54.1808 66.5427C54.2999 66.5778 54.4151 66.5973 54.5223 66.6012Z" fill="#998400"/>
<path d="M54.1854 66.5467L55.4521 65.8254C55.2893 65.7786 55.1226 65.7084 54.9478 65.611L53.6811 66.3323C53.8518 66.4298 54.0226 66.4999 54.1854 66.5467Z" fill="#9E8800"/>
<path d="M53.8454 79.6977L55.1122 78.9764C55.1638 78.9491 55.2035 78.8906 55.2313 78.8048C55.2551 78.7347 55.275 78.6684 55.2948 78.5904C55.6443 77.1244 56.0493 75.7091 56.6093 74.4342C56.919 73.7285 57.2248 73.015 57.6139 72.399C58.1619 71.5217 58.7854 70.7263 59.3771 69.8998C59.9926 69.042 60.4294 68.0244 60.489 66.6442C60.5088 66.149 60.481 65.6344 60.3976 65.1041L59.1309 65.8254C59.2143 66.3557 59.246 66.8703 59.2222 67.3655C59.1626 68.7457 58.7258 69.7633 58.1103 70.6211C57.5186 71.4476 56.8952 72.2391 56.3472 73.1203C55.958 73.7363 55.6522 74.4498 55.3425 75.1555C54.7826 76.4304 54.3775 77.8457 54.0281 79.3117C54.0122 79.3858 53.9884 79.456 53.9685 79.5261C53.9367 79.608 53.897 79.6665 53.8454 79.6977Z" fill="#857200"/>
<path d="M59.1268 65.8254L60.3936 65.1041C60.33 64.6986 60.2347 64.2814 60.1076 63.8525L58.8409 64.5738C58.968 64.9988 59.0633 65.4199 59.1268 65.8254Z" fill="#8A7700"/>
<path d="M58.8407 64.5699L60.1074 63.8486C60.0757 63.7472 60.0439 63.6419 60.0081 63.5406C59.9168 63.2559 59.8136 62.9791 59.6984 62.7062L58.4316 63.4275C58.5428 63.7004 58.6461 63.9772 58.7414 64.2619C58.7811 64.3671 58.8129 64.4685 58.8407 64.5699Z" fill="#8F7B00"/>
<path d="M58.4354 63.4275L59.7021 62.7062C59.5512 62.3397 59.3845 61.9849 59.1978 61.6379L57.9311 62.3592C58.1177 62.7062 58.2845 63.061 58.4354 63.4275Z" fill="#948000"/>
<path d="M57.9315 62.3591L59.1982 61.6378C58.9878 61.2402 58.7575 60.8581 58.5033 60.4877L57.2365 61.209C57.4907 61.5794 57.721 61.9615 57.9315 62.3591Z" fill="#998400"/>
<path d="M57.2401 61.2053L58.5068 60.484C58.1216 59.9109 57.6888 59.3689 57.2162 58.8465C57.1845 58.8114 57.1527 58.7763 57.1209 58.7412L55.8542 59.4625C55.8859 59.4976 55.9177 59.5327 55.9495 59.5678C56.422 60.0902 56.8549 60.6321 57.2401 61.2053Z" fill="#9E8800"/>
<path d="M55.8504 59.4663L57.1172 58.7451C56.4699 58.0511 55.7988 57.4974 55.0999 57.0919L53.8331 57.8132C54.532 58.2187 55.2031 58.7723 55.8504 59.4663Z" fill="#A38D00"/>
<path d="M53.8377 57.813L55.1045 57.0918C55.0846 57.0801 55.0648 57.0684 55.0489 57.0606C54.8623 56.9553 54.6756 56.8617 54.485 56.776C54.2189 56.659 53.9569 56.5654 53.7027 56.4952L52.436 57.2165C52.6901 57.2867 52.9522 57.3803 53.2182 57.4972C53.4089 57.583 53.5955 57.6766 53.7821 57.7819C53.798 57.7897 53.8179 57.8013 53.8377 57.813Z" fill="#9E8800"/>
<path d="M52.4354 57.2168L53.7021 56.4955C53.3646 56.402 53.039 56.3474 52.7253 56.3318L51.4585 57.0531C51.7722 57.0687 52.0978 57.1194 52.4354 57.2168Z" fill="#998400"/>
<path d="M51.4549 57.0489L52.7217 56.3276C52.4437 56.312 52.1737 56.3276 51.9116 56.3705C51.8878 56.3743 51.86 56.3782 51.8361 56.3821L50.5694 57.1035C50.5932 57.0996 50.621 57.0957 50.6448 57.0918C50.9109 57.0528 51.1769 57.0372 51.4549 57.0489Z" fill="#948000"/>
<path d="M50.574 57.1073L51.8408 56.386C51.5549 56.4406 51.2888 56.5264 51.0506 56.6433L49.7838 57.3646C50.0221 57.2477 50.2842 57.1619 50.574 57.1073Z" fill="#8F7B00"/>
<path d="M49.783 57.3686L51.0498 56.6473C51.0022 56.6707 50.9545 56.698 50.9068 56.7253L49.6401 57.4466C49.6838 57.4154 49.7314 57.392 49.783 57.3686Z" fill="#8A7700"/>
<path d="M48.1789 59.7351C48.1352 59.9612 48.1074 60.2069 48.0757 60.4408C48.0757 60.6514 48.0757 60.8619 48.0757 61.0724C48.0836 61.1231 48.0995 61.1777 48.0995 61.2245C48.1392 62.2265 48.3338 63.2792 48.7269 64.367C49.124 65.4626 49.5608 66.5582 49.9818 67.6538C50.363 68.6441 50.7919 69.6422 51.1175 70.6364C51.9752 73.2565 52.6384 75.8493 53.103 78.403C53.1507 78.6643 53.2102 78.9255 53.2698 79.1906C53.3095 79.3505 53.385 79.5181 53.516 79.6117C53.5478 79.6312 53.5756 79.6507 53.5994 79.6663C53.786 79.7716 53.9052 79.7209 53.9727 79.5259C53.9965 79.4558 54.0164 79.3856 54.0322 79.3115C54.3817 77.8455 54.7867 76.4302 55.3467 75.1553C55.6564 74.4496 55.9622 73.7361 56.3513 73.12C56.8993 72.2428 57.5228 71.4474 58.1145 70.6208C58.73 69.7631 59.1668 68.7455 59.2264 67.3653C59.2661 66.3983 59.1112 65.3651 58.7498 64.2617C58.1661 62.4955 57.2051 60.9438 55.9542 59.5714C55.2593 58.8111 54.5366 58.2068 53.786 57.7818C53.5994 57.6765 53.4128 57.5829 53.2221 57.4971C52.2929 57.0878 51.4392 56.963 50.6529 57.0956C49.3385 57.3139 48.5006 58.1756 48.1789 59.7351ZM53.6828 66.3321C52.563 65.6965 51.6536 64.1565 51.6576 62.8893C51.6615 61.6261 52.5749 61.1153 53.6947 61.7508C54.8185 62.3864 55.7239 63.9303 55.7199 65.1936C55.716 66.4568 54.8026 66.9676 53.6828 66.3321Z" fill="#EECD00"/>
<path opacity="0.2" d="M94.7716 45.1263C95.0559 44.9293 95.3801 44.762 95.728 44.6341L115.703 41.7895C114.77 40.6556 114.674 39.2674 115.855 37.8156C117.764 35.4685 120.979 35.417 123.905 36.637C124.534 36.8981 125.095 37.2024 125.578 37.5351L133.21 34.2516C131.798 33.0292 131.431 31.428 132.816 29.7245C134.725 27.3774 137.94 27.3259 140.866 28.5459C141.808 28.9375 142.6 29.4154 143.182 29.9592L145.599 28.917L146.994 29.5482L149.494 30.6852L150.604 31.1862L161.507 36.1302C162.873 36.7513 163.092 37.6866 163.098 38.1898C163.121 38.2926 163.111 38.4146 163.069 38.5411L158.679 45.6659C158.013 47.568 156.284 49.2969 154.073 50.2829L136.859 64.8063L135.871 65.2493L134.134 66.0257C132.13 66.9212 129.978 67.2875 128.023 67.0798L115.632 65.7428L113.295 66.0631C113.287 66.063 111.54 66.3216 111.088 66.3653C110.564 66.4375 110.069 66.3782 109.66 66.1929L108.939 65.8672C108.939 65.8672 104.644 66.2776 103.774 63.523C103.238 61.8221 93.7685 45.8182 94.7716 45.1263ZM131.304 50.8014L131.73 50.8356L132.163 50.65C131.88 50.7689 131.581 50.8241 131.304 50.8014Z" fill="#1B1464"/>
<path d="M95.7112 40.9617C95.7112 40.9617 93.6587 44.5745 96.0231 47.3285C97.473 49.0218 115.222 54.6483 116.284 54.2314C118.528 53.3579 120.036 49.2415 115.197 47.2055C113.463 46.4784 95.7112 40.9617 95.7112 40.9617Z" fill="#333333"/>
<path d="M148.025 10.3255L148.901 28.2116C148.923 28.6566 148.721 29.0858 148.356 29.3525L117.596 52.1769C116.716 52.8309 115.447 52.2481 115.394 51.1656L115.205 47.2957C113.519 47.2392 112.12 48.8554 112.12 48.8554C112.12 48.8554 97.7173 44.738 97.5661 43.146C97.4149 41.554 95.72 41.1463 95.72 41.1463L95.6673 40.0714C95.6428 39.5697 95.7726 39.0759 96.0444 38.651L98.3976 34.9672L101.842 22.7483C102.387 20.8209 103.574 19.1278 105.218 17.9463L125.86 3.07776C127.675 1.77091 130.031 1.43662 132.147 2.1873L146.269 7.18737C146.41 7.23742 146.53 7.31496 146.623 7.40885C147.107 7.7754 147.942 8.63949 148.025 10.3255ZM115.196 46.3434L115.22 46.3536C115.243 46.2732 115.27 46.1925 115.305 46.119L115.196 46.3434ZM117.314 42.0205L116.814 43.0422L117.314 42.0205ZM122.556 26.6356L122.206 26.894L118.56 38.2076L122.076 27.3047C122.159 27.0361 122.329 26.805 122.556 26.6356Z" fill="#FC153B"/>
<path d="M122.15 32.1857C122.15 32.1857 123.023 28.0804 123.89 27.0716C124.495 26.3701 126.531 25.0188 127.6 24.439C128.616 23.8882 128.888 30.3704 128.946 31.5698C129.039 33.4558 124.781 36.4507 124.781 36.4507C124.781 36.4507 123.525 38.1016 122.99 35.2688C122.331 31.8067 122.15 32.1857 122.15 32.1857Z" fill="white"/>
<path d="M127.573 33.801C127.573 33.801 127.466 31.602 127.232 31.3938C126.999 31.1855 125.654 31.249 124.992 31.4996C124.558 31.6638 124.553 32.6696 124.601 33.3365L124.597 33.3367C124.597 33.3367 124.705 35.5357 124.939 35.7439C125.172 35.9521 126.517 35.8886 127.178 35.6381C127.613 35.4701 127.618 34.4681 127.573 33.801Z" fill="#333333"/>
<path d="M124.845 35.1813C124.306 35.5735 122.986 35.2692 122.986 35.2692L122.95 34.5412C123.713 34.8719 124.81 34.4534 124.81 34.4534L124.845 35.1813Z" fill="#333333"/>
<path d="M124.779 36.4471C122.822 35.6398 122.512 31.9835 122.319 31.8112C122.126 31.6388 120.242 38.8579 120.624 39.0214C121.005 39.1848 125.164 36.6066 124.779 36.4471Z" fill="#333333"/>
<path d="M116.813 53.9531L125.539 47.4505L148.982 29.9281L148.897 28.2119L116.742 52.501L116.813 53.9531Z" fill="#333333"/>
<path d="M115.259 48.503L148.679 23.7611L148.843 27.1181L115.435 52.0787L115.259 48.503Z" fill="#333333"/>
<path d="M133.104 44.1368C133.177 47.6644 131.894 50.5529 128.862 50.6129C125.831 50.6729 124.249 47.8404 124.176 44.3127C124.103 40.7851 125.571 37.8917 128.602 37.8317C131.633 37.7717 133.031 40.6054 133.104 44.1368Z" fill="#333333"/>
<path d="M131.897 44.1711C131.94 46.237 131.245 47.9295 130.345 47.9456C129.445 47.9616 128.871 46.2988 128.827 44.2291C128.783 42.1632 129.294 40.4756 130.194 40.4596C131.09 40.4399 131.853 42.1014 131.897 44.1711Z" fill="#E4E4E4"/>
<path d="M147.53 34.4957C147.603 38.0233 146.32 40.9118 143.288 40.9717C140.257 41.0317 138.674 38.1992 138.602 34.6716C138.529 31.144 139.997 28.2506 143.028 28.1906C146.059 28.1306 147.457 30.968 147.53 34.4957Z" fill="#333333"/>
<path d="M146.323 34.5297C146.366 36.5956 145.671 38.2881 144.771 38.3042C143.871 38.3202 143.296 36.6575 143.253 34.5878C143.209 32.5218 143.72 30.8343 144.62 30.8182C145.516 30.8024 146.279 32.4638 146.323 34.5297Z" fill="#E4E4E4"/>
<path d="M100.56 34.3284C100.287 34.2468 100.127 33.967 100.198 33.6952C101.099 30.3144 102.172 25.0201 103.12 24.964C103.976 24.9122 115.867 28.29 119.159 29.2309C119.674 29.3804 120.003 29.8828 119.913 30.405C119.538 32.5663 118.064 36.5904 117.713 38.622C117.647 39.007 117.246 39.2414 116.867 39.127L100.56 34.3284Z" fill="white"/>
<path d="M117.163 43.0182C117.188 42.6767 116.811 42.4413 116.508 42.6182C115.804 43.0294 114.54 43.6411 112.624 44.1324C109.452 44.9437 111.706 47.1661 113.071 46.905C114.445 46.6436 116.876 46.9031 117.163 43.0182Z" fill="white"/>
<path d="M97.352 41.3039C98.2995 42.0947 101.16 41.0711 99.0593 39.057C98.1907 38.2247 97.5914 37.4666 97.1883 36.8619C97.1883 36.8619 96.26 38.2705 96.0439 38.655C96.4552 39.4257 96.8622 40.896 97.352 41.3039Z" fill="white"/>
<path d="M108.609 21.8997C108.609 21.8997 109.378 18.9674 111.447 17.5125C113.517 16.0575 129.329 4.38489 129.329 4.38489" fill="#FF0000"/>
<path d="M113.488 23.9341C113.488 23.9341 114.257 21.0019 116.326 19.5469C118.396 18.092 134.208 6.41931 134.208 6.41931" stroke="#CACACA" stroke-width="0.967" stroke-miterlimit="10"/>
<path d="M108.659 22.3589C108.659 22.3589 109.428 19.4267 111.497 17.9717C113.567 16.5168 129.379 4.84412 129.379 4.84412" stroke="#CACACA" stroke-width="0.967" stroke-miterlimit="10"/>
<path d="M118.507 25.6588C118.507 25.6588 119.276 22.7265 121.346 21.2715C123.412 19.8168 139.228 8.14392 139.228 8.14392" stroke="#CACACA" stroke-width="0.967" stroke-miterlimit="10"/>
<path d="M99.9885 43.9578L99.4836 43.0062C99.3776 42.8071 99.3813 42.5688 99.491 42.3708L100.759 40.1068C100.918 39.8233 101.262 39.6899 101.575 39.7923L110.646 42.7588C111.033 42.8842 111.224 43.3137 111.053 43.6772L110.021 45.8808C109.948 46.0393 109.815 46.159 109.653 46.2234L108.02 46.86C107.865 46.9202 107.689 46.9248 107.532 46.8679L100.362 44.2804C100.202 44.2199 100.069 44.1052 99.9885 43.9578Z" fill="#333333"/>
<path d="M128.973 23.8638L129.81 30.3533C129.873 30.838 130.432 31.0914 130.846 30.8223L146.423 20.5671C146.621 20.4406 146.737 20.2158 146.726 19.9858L146.383 12.9814C146.358 12.4685 145.766 12.1789 145.333 12.4677L129.262 23.2377C129.053 23.3761 128.941 23.6158 128.973 23.8638Z" fill="white"/>
<path d="M105.715 43.5741C105.643 43.8459 105.141 43.9566 104.583 43.8204C104.026 43.6841 103.636 43.351 103.708 43.0792C103.779 42.8074 104.282 42.6967 104.839 42.8329C105.396 42.9691 105.782 43.3025 105.715 43.5741Z" fill="white"/>
<path d="M104.447 20.4402L112.672 7.23191C112.683 7.21627 112.694 7.20442 112.712 7.19597L112.87 7.11292L105.14 20.2677C105.111 20.3181 105.13 20.3815 105.185 20.4092L105.481 20.5502L104.54 20.5947C104.459 20.5947 104.404 20.5065 104.447 20.4402Z" fill="#333333"/>
</svg>
